<?xml version="1.0" encoding="UTF-8"?>
<!DOCTYPE svg PUBLIC "-//W3C//DTD SVG 1.1//EN" "http://www.w3.org/Graphics/SVG/1.1/DTD/svg11.dtd">
<svg xmlns="http://www.w3.org/2000/svg" version="1.1" width="2544px" height="954px" style="shape-rendering:geometricPrecision; text-rendering:geometricPrecision; image-rendering:optimizeQuality; fill-rule:evenodd; clip-rule:evenodd" xmlns:xlink="http://www.w3.org/1999/xlink">
<g><path style="opacity:1" fill="#f2f3f3" d="M 1071.5,380.5 C 1072.4,379.402 1073.23,379.402 1074,380.5C 1077.37,378.21 1080.53,375.543 1083.5,372.5C 1088.3,370.098 1093.3,368.264 1098.5,367C 1103.81,362.091 1109.98,358.591 1117,356.5C 1119.83,359.167 1121.33,358.334 1121.5,354C 1128.92,350.77 1136.59,347.103 1144.5,343C 1145.5,342.333 1146.5,342.333 1147.5,343C 1148.31,344.706 1149.64,345.539 1151.5,345.5C 1149.47,341.9 1150.47,339.567 1154.5,338.5C 1155.77,339.428 1157.1,339.595 1158.5,339C 1162.17,335.658 1166.51,333.658 1171.5,333C 1176.28,327.526 1181.95,325.859 1188.5,328C 1190.12,327.147 1190.46,326.147 1189.5,325C 1190.25,323.513 1191.09,323.346 1192,324.5C 1192.37,323.584 1192.87,322.75 1193.5,322C 1196.04,321.619 1198.37,320.786 1200.5,319.5C 1201.44,319.608 1202.28,319.941 1203,320.5C 1206.99,315.249 1212.15,311.583 1218.5,309.5C 1219.25,310.376 1219.75,311.376 1220,312.5C 1221.76,311.531 1222.26,310.364 1221.5,309C 1227.01,303.607 1233.51,301.44 1241,302.5C 1243.14,300.355 1245.31,298.188 1247.5,296C 1253.87,292.993 1260.2,289.993 1266.5,287C 1267.9,286.405 1269.23,286.572 1270.5,287.5C 1272.32,286.185 1273.98,284.685 1275.5,283C 1277.37,282.289 1278.87,282.789 1280,284.5C 1282.39,283.237 1284.22,281.403 1285.5,279C 1288.21,277.931 1290.87,276.764 1293.5,275.5C 1298.69,277.745 1302.36,276.245 1304.5,271C 1307.79,269.392 1311.13,269.225 1314.5,270.5C 1316.49,268.165 1318.82,267.498 1321.5,268.5C 1323.32,266.183 1325.32,264.016 1327.5,262C 1338.3,257.532 1349.3,253.198 1360.5,249C 1363.5,248.667 1366.5,248.333 1369.5,248C 1381.5,240.884 1394.34,237.05 1408,236.5C 1421.77,231.069 1436.1,228.735 1451,229.5C 1465.91,227.743 1479.24,231.41 1491,240.5C 1497.45,256.465 1492.61,267.965 1476.5,275C 1473.21,275.882 1469.88,276.548 1466.5,277C 1424.43,297.68 1382.43,318.347 1340.5,339C 1295.53,358.306 1251.2,378.973 1207.5,401C 1149.69,426.107 1093.35,452.107 1038.5,479C 1028.68,483.584 1018.68,487.584 1008.5,491C 976.674,507.077 944.34,522.41 911.5,537C 895.723,545.23 880.056,552.73 864.5,559.5C 811.807,585.846 758.807,611.679 705.5,637C 698.487,641.508 691.153,645.508 683.5,649C 681.65,651.018 679.65,652.851 677.5,654.5C 682.545,656.116 687.712,657.449 693,658.5C 700.145,657.694 707.312,656.694 714.5,655.5C 715.554,655.68 716.554,656.013 717.5,656.5C 722.127,654.569 726.794,652.735 731.5,651C 744.5,647.333 757.5,643.667 770.5,640C 792.738,631.547 814.738,622.547 836.5,613C 838.488,612.82 840.488,612.986 842.5,613.5C 842.393,611.097 843.393,609.264 845.5,608C 850.886,606.546 856.053,604.713 861,602.5C 885.041,592.678 909.041,582.011 933,570.5C 934.049,571.517 935.216,571.684 936.5,571C 940.447,569.569 943.781,567.236 946.5,564C 952.231,563.138 957.564,561.138 962.5,558C 964.769,557.242 966.936,557.409 969,558.5C 969.309,557.234 969.809,556.067 970.5,555C 974.472,553.349 978.305,551.515 982,549.5C 983.873,554.698 985.207,554.365 986,548.5C 987.41,547.213 988.91,546.046 990.5,545C 1011.47,537.347 1031.81,528.347 1051.5,518C 1058.17,515.333 1064.83,512.667 1071.5,510C 1075.79,508.941 1080.13,508.441 1084.5,508.5C 1083.27,507.719 1081.94,507.219 1080.5,507C 1086.55,502.833 1093.55,499.833 1101.5,498C 1106.77,493.697 1112.77,491.03 1119.5,490C 1128.38,485.095 1137.71,481.262 1147.5,478.5C 1150.56,480.997 1153.56,480.83 1156.5,478C 1155.38,477.751 1154.38,477.251 1153.5,476.5C 1156.03,475.223 1158.53,475.223 1161,476.5C 1162.28,475.428 1162.62,474.095 1162,472.5C 1162.69,471.643 1163.52,470.977 1164.5,470.5C 1167.66,472.027 1170.99,472.693 1174.5,472.5C 1174.72,471.325 1174.39,470.325 1173.5,469.5C 1171.57,470.52 1169.57,470.687 1167.5,470C 1168.33,469.085 1169.33,468.419 1170.5,468C 1180.63,464.246 1190.63,460.246 1200.5,456C 1201.94,455.219 1203.28,455.386 1204.5,456.5C 1203.49,457.396 1203.49,458.062 1204.5,458.5C 1207.96,458.21 1209.96,456.376 1210.5,453C 1226.22,444.979 1242.55,438.312 1259.5,433C 1262.43,432.223 1265.26,432.39 1268,433.5C 1271.86,427.261 1277.2,423.927 1284,423.5C 1292.38,419.152 1301.21,415.985 1310.5,414C 1315.87,410.451 1321.53,408.451 1327.5,408C 1332.58,406.196 1337.58,404.196 1342.5,402C 1345.19,401.57 1347.86,401.737 1350.5,402.5C 1350.3,400.61 1350.96,399.11 1352.5,398C 1361.98,395.923 1370.98,392.59 1379.5,388C 1403.68,380.383 1427.68,372.383 1451.5,364C 1462.67,361.093 1474,358.76 1485.5,357C 1494.24,354.036 1503.08,351.536 1512,349.5C 1512.39,350.428 1513.05,351.095 1514,351.5C 1527.71,344.625 1542.21,342.125 1557.5,344C 1560.58,345.139 1563.58,346.472 1566.5,348C 1569.05,351.59 1571.21,355.423 1573,359.5C 1573.63,361.635 1573.3,363.635 1572,365.5C 1567.17,371.667 1561.67,377.167 1555.5,382C 1535.27,395.941 1514.93,409.607 1494.5,423C 1488.07,426.881 1481.4,430.215 1474.5,433C 1469.21,438.313 1463.21,442.646 1456.5,446C 1406.79,473.851 1357.13,501.685 1307.5,529.5C 1309.5,529.347 1311.67,529.68 1314,530.5C 1322.95,527.599 1332.11,525.432 1341.5,524C 1375.59,518.602 1409.59,514.269 1443.5,511C 1459.53,510.724 1475.53,510.558 1491.5,510.5C 1496.52,511.194 1501.52,512.027 1506.5,513C 1510.92,515.738 1515.59,518.071 1520.5,520C 1527.9,530.625 1534.4,541.792 1540,553.5C 1547.22,560.243 1555.89,563.243 1566,562.5C 1569.48,562.402 1572.98,562.402 1576.5,562.5C 1583.46,560.904 1590.46,559.404 1597.5,558C 1629.99,547.913 1661.65,535.913 1692.5,522C 1743.86,498.155 1794.86,473.488 1845.5,448C 1849.73,447.629 1853.07,445.795 1855.5,442.5C 1878.97,431.078 1902.3,419.578 1925.5,408C 1937,401.083 1949,394.916 1961.5,389.5C 1990.42,376.379 2019.42,362.546 2048.5,348C 2071.73,339.359 2095.07,331.026 2118.5,323C 2129.04,319.688 2139.7,319.022 2150.5,321C 2165.5,326.878 2170,337.378 2164,352.5C 2157.93,366.542 2150.26,379.542 2141,391.5C 2139.15,396.694 2136.65,401.528 2133.5,406C 2136.33,408.248 2139.33,410.248 2142.5,412C 2153.59,416.297 2164.59,420.964 2175.5,426C 2188.32,430.457 2201.32,434.457 2214.5,438C 2251.96,445.425 2289.63,447.925 2327.5,445.5C 2356.72,437.479 2385.72,428.979 2414.5,420C 2417.5,419.333 2420.5,419.333 2423.5,420C 2429.63,421.572 2435.63,423.905 2441.5,427C 2446.99,431.981 2449.99,437.981 2450.5,445C 2454.29,455.468 2452.96,465.134 2446.5,474C 2445.5,474.667 2444.5,474.667 2443.5,474C 2442.27,472.471 2440.77,471.304 2439,470.5C 2435.56,459.938 2430.4,450.605 2423.5,442.5C 2416.92,444.414 2410.25,445.914 2403.5,447C 2384.42,454.161 2365.42,460.494 2346.5,466C 2285.02,476.268 2224.69,471.602 2165.5,452C 2147.75,444.291 2130.08,436.291 2112.5,428C 2098.94,419.138 2095.77,406.971 2103,391.5C 2107.47,379.894 2113.47,369.227 2121,359.5C 2123.21,356.171 2124.38,352.837 2124.5,349.5C 2116.51,352.494 2108.51,355.494 2100.5,358.5C 2099.83,358.167 2099.17,357.833 2098.5,357.5C 2077.06,367.556 2055.39,377.056 2033.5,386C 2031.86,387.395 2030.36,388.895 2029,390.5C 2027.23,389.724 2025.4,389.89 2023.5,391C 2008.41,397.71 1993.41,404.71 1978.5,412C 1971.28,411.945 1965.28,414.612 1960.5,420C 1924.85,438.159 1888.85,456.493 1852.5,475C 1849.19,475.941 1845.85,476.774 1842.5,477.5C 1814.83,494.023 1785.83,508.189 1755.5,520C 1751.33,521.584 1747.66,523.918 1744.5,527C 1724.6,534.95 1705.27,543.95 1686.5,554C 1684.17,554.333 1681.83,554.667 1679.5,555C 1673.32,558.588 1666.99,561.922 1660.5,565C 1648.47,570.078 1636.14,574.411 1623.5,578C 1609.11,581.024 1594.78,584.357 1580.5,588C 1575.8,588.719 1571.13,588.553 1566.5,587.5C 1564.25,588.459 1561.92,589.125 1559.5,589.5C 1550.27,587.85 1541.27,585.35 1532.5,582C 1525.06,577.229 1518.23,571.729 1512,565.5C 1506.19,555.369 1500.02,545.535 1493.5,536C 1484.43,535.83 1475.43,534.996 1466.5,533.5C 1413.5,537.137 1360.5,543.971 1307.5,554C 1301.15,554.293 1294.81,554.793 1288.5,555.5C 1281.79,554.742 1275.46,552.909 1269.5,550C 1258.31,542.317 1256.81,533.151 1265,522.5C 1278.54,510.794 1293.71,501.794 1310.5,495.5C 1313.77,492.194 1317.43,489.361 1321.5,487C 1336.7,478.732 1352.37,471.565 1368.5,465.5C 1371.73,461.877 1375.39,458.71 1379.5,456C 1387.63,451.524 1395.96,447.524 1404.5,444C 1405.36,443.311 1406.02,442.478 1406.5,441.5C 1423.01,433.831 1438.68,424.665 1453.5,414C 1456.95,412.073 1460.61,410.739 1464.5,410C 1466.17,407 1468.5,404.667 1471.5,403C 1482.35,396.742 1492.69,389.742 1502.5,382C 1503.9,380.658 1503.57,379.824 1501.5,379.5C 1479.26,383.878 1457.93,390.045 1437.5,398C 1352.37,425.193 1268.71,456.193 1186.5,491C 1153.99,504.842 1121.33,518.508 1088.5,532C 1024.51,560.661 960.51,589.328 896.5,618C 859.183,633.329 821.849,648.662 784.5,664C 764.994,669.057 745.661,674.724 726.5,681C 706.873,683.799 687.207,684.132 667.5,682C 659.221,680.02 651.554,676.687 644.5,672C 643.167,671.333 641.833,671.333 640.5,672C 608.919,687.804 577.586,704.804 546.5,723C 488.914,752.46 431.581,782.46 374.5,813C 345.748,825.243 317.415,838.243 289.5,852C 268.184,860.657 246.85,867.99 225.5,874C 213.311,876.11 201.645,878.776 190.5,882C 161.421,887.717 133.754,883.717 107.5,870C 84.4953,853.481 75.6619,831.315 81,803.5C 82.7296,795.167 84.3963,786.5 86,777.5C 101.235,734.051 119.902,692.385 142,652.5C 144.758,651.205 147.258,649.539 149.5,647.5C 148.689,646.784 148.022,645.95 147.5,645C 153.216,633.609 159.383,622.442 166,611.5C 170.903,606.575 174.57,600.909 177,594.5C 202.414,554.382 228.747,514.716 256,475.5C 260.132,472.108 263.132,468.441 265,464.5C 275.945,452.43 285.278,439.764 293,426.5C 295.585,424.242 298.418,422.409 301.5,421C 300.724,419.23 300.89,417.397 302,415.5C 307.84,410.833 312.506,405.167 316,398.5C 317.085,397.707 318.252,397.04 319.5,396.5C 326.676,388.594 332.509,380.26 337,371.5C 341.867,366.968 346.367,362.134 350.5,357C 354.824,355.434 356.991,352.267 357,347.5C 361.054,343.446 365.054,339.446 369,335.5C 373.737,329.063 378.737,322.73 384,316.5C 386.786,314.858 389.619,313.358 392.5,312C 391.833,311.333 391.167,310.667 390.5,310C 394.167,307.667 397.167,304.667 399.5,301C 400.448,300.517 401.448,300.351 402.5,300.5C 402.491,298.692 402.991,297.025 404,295.5C 413.527,284.64 423.694,274.473 434.5,265C 436.901,262.938 439.567,261.271 442.5,260C 449.332,252.247 456.999,245.414 465.5,239.5C 469.657,235.174 473.657,230.674 477.5,226C 519.762,190.684 564.096,158.017 610.5,128C 628.709,118.396 647.042,109.062 665.5,100C 681.115,95.0128 696.781,90.1795 712.5,85.5C 713.086,85.7093 713.586,86.0426 714,86.5C 717.291,84.7999 720.791,83.6333 724.5,83C 739.154,81.8404 753.82,81.5071 768.5,82C 774.318,84.4098 779.985,87.0765 785.5,90C 793.972,99.1406 802.472,108.307 811,117.5C 817.843,134.492 819.343,151.992 815.5,170C 816.022,170.561 816.355,171.228 816.5,172C 813.366,182.102 809.533,191.935 805,201.5C 790.087,224.986 774.42,247.986 758,270.5C 755.372,272.126 753.039,274.126 751,276.5C 725.677,305.152 699.177,332.319 671.5,358C 605.018,420.904 535.352,478.904 462.5,532C 451.177,537.66 440.177,543.827 429.5,550.5C 422.007,550.583 414.341,550.416 406.5,550C 405.24,548.887 404.073,548.72 403,549.5C 402.326,547.483 401.159,545.817 399.5,544.5C 400.833,543.167 400.833,541.833 399.5,540.5C 400.128,538.742 401.128,537.242 402.5,536C 422.21,528.493 439.543,517.493 454.5,503C 456.5,502 458.5,501 460.5,500C 484.812,481.35 508.812,462.35 532.5,443C 540.298,434.862 548.965,427.862 558.5,422C 562.301,416.194 567.301,411.86 573.5,409C 579.124,403.197 585.124,397.864 591.5,393C 600.958,384.377 610.291,375.544 619.5,366.5C 626.644,361.191 633.644,355.691 640.5,350C 643,346.833 645.5,343.667 648,340.5C 657.32,333.179 665.986,325.179 674,316.5C 691.338,298.828 708.338,280.828 725,262.5C 733.333,252.167 741.667,241.833 750,231.5C 757.351,219.457 764.684,207.457 772,195.5C 775.024,187.108 778.357,178.775 782,170.5C 790.64,142.376 782.14,121.543 756.5,108C 743.971,107.361 731.637,108.694 719.5,112C 682.623,123.608 647.623,139.274 614.5,159C 586.984,177.259 559.984,196.259 533.5,216C 518.395,228.073 503.395,240.407 488.5,253C 472.157,268.342 455.491,283.342 438.5,298C 424.088,313.389 409.588,328.555 395,343.5C 387.051,354.116 378.384,364.116 369,373.5C 362.356,382.089 355.689,390.756 349,399.5C 347,401.167 345,402.833 343,404.5C 337.349,412.453 331.682,420.453 326,428.5C 323.926,430.452 321.759,432.285 319.5,434C 320.451,434.718 320.617,435.551 320,436.5C 315.395,438.77 312.728,442.436 312,447.5C 307.224,452.949 302.391,458.449 297.5,464C 298.451,464.718 298.617,465.551 298,466.5C 291.225,472.072 285.891,478.739 282,486.5C 278.223,491.065 274.223,495.398 270,499.5C 261.997,511.502 253.997,523.502 246,535.5C 245.257,539.562 242.924,542.895 239,545.5C 235.299,553.515 230.466,560.682 224.5,567C 225.167,568 225.833,569 226.5,570C 222.994,572.34 219.994,575.174 217.5,578.5C 216.64,582.776 214.14,586.443 210,589.5C 200.732,605.704 191.732,622.038 183,638.5C 174.617,648.608 168.284,659.941 164,672.5C 161.154,675.139 159.487,678.472 159,682.5C 157,685.167 155,687.833 153,690.5C 149.273,699.447 145.439,708.281 141.5,717C 139.186,724.85 136.019,732.683 132,740.5C 131.727,742.101 131.227,743.601 130.5,745C 131.622,746.613 131.122,747.78 129,748.5C 127.763,754.307 125.43,759.641 122,764.5C 117.773,779.811 114.273,794.977 111.5,810C 110.423,825.11 115.423,837.777 126.5,848C 133.653,851.602 140.987,854.602 148.5,857C 151.948,857.859 155.448,858.359 159,858.5C 185.489,857.135 211.322,852.302 236.5,844C 261.041,834.221 285.374,824.221 309.5,814C 349.657,793.407 389.99,773.407 430.5,754C 431.167,752.667 432.167,751.667 433.5,751C 438.197,749.267 442.864,748.267 447.5,748C 446.124,745.46 446.79,743.46 449.5,742C 471.578,730.975 492.911,719.642 513.5,708C 516.226,707.818 518.893,707.318 521.5,706.5C 526.5,702.667 531.5,698.833 536.5,695C 542.458,692.354 548.124,689.188 553.5,685.5C 560.811,682.453 567.978,679.12 575,675.5C 575.414,675.957 575.914,676.291 576.5,676.5C 577.262,675.372 577.929,674.205 578.5,673C 587.663,670.073 596.33,665.406 604.5,659C 616.222,655.307 626.888,649.807 636.5,642.5C 639.445,645.298 641.445,644.631 642.5,640.5C 650.025,636.399 656.358,630.899 661.5,624C 678.016,611.241 694.349,598.241 710.5,585C 715.356,582.74 719.689,579.74 723.5,576C 726.859,574.617 730.193,573.284 733.5,572C 740.626,566.543 747.459,560.71 754,554.5C 755.049,555.517 756.216,555.684 757.5,555C 761.741,548.534 767.741,544.534 775.5,543C 776.787,541.59 777.954,540.09 779,538.5C 779.85,539.424 780.85,539.424 782,538.5C 786.877,534.639 792.044,531.139 797.5,528C 799.025,526.991 800.692,526.491 802.5,526.5C 802.33,525.178 802.663,524.011 803.5,523C 806.295,521.7 808.961,520.2 811.5,518.5C 816.491,521.556 820.824,520.722 824.5,516C 824.335,514.883 824.002,513.716 823.5,512.5C 825.045,511.548 826.712,511.215 828.5,511.5C 828.421,510.07 828.754,508.736 829.5,507.5C 835.224,502.473 841.891,499.306 849.5,498C 857.326,489.758 866.66,484.091 877.5,481C 884.279,473.522 892.612,468.855 902.5,467C 904.507,462.989 907.84,460.989 912.5,461C 913.875,458.523 915.709,457.689 918,458.5C 918.419,457.328 919.085,456.328 920,455.5C 921.049,456.517 922.216,456.684 923.5,456C 925.895,452.41 929.228,450.077 933.5,449C 936.722,446.112 940.222,443.612 944,441.5C 944.414,441.957 944.914,442.291 945.5,442.5C 949.146,438.672 953.479,437.506 958.5,439C 961.076,438.218 963.076,436.718 964.5,434.5C 966.045,433.548 967.712,433.215 969.5,433.5C 969.833,431.5 970.167,429.5 970.5,427.5C 978.162,424.5 985.495,420.667 992.5,416C 996.098,415.846 999.431,414.846 1002.5,413C 1003.34,411.989 1003.67,410.822 1003.5,409.5C 1004.5,409.5 1005.5,409.5 1006.5,409.5C 1006.33,412.684 1007.67,413.184 1010.5,411C 1011.46,409.853 1011.12,408.853 1009.5,408C 1013.31,405.14 1017.65,403.807 1022.5,404C 1023.83,403.333 1024.83,402.333 1025.5,401C 1029.37,401.042 1032.7,399.876 1035.5,397.5C 1039,399.865 1039.33,399.198 1036.5,395.5C 1037.78,393.854 1039.45,392.687 1041.5,392C 1048.2,393.061 1053.2,390.727 1056.5,385C 1058.87,384.438 1061.2,384.604 1063.5,385.5C 1064.65,385.182 1065.48,384.516 1066,383.5C 1069.06,384.966 1070.89,383.966 1071.5,380.5 Z M 1073.5,434.5 C 1072.69,432.727 1071.35,432.227 1069.5,433C 1068.83,434.333 1067.83,435.333 1066.5,436C 1058.54,438.579 1050.87,441.912 1043.5,446C 1046.27,446.669 1046.77,447.836 1045,449.5C 1042.67,447.957 1040.17,447.457 1037.5,448C 1033.29,449.187 1030.12,451.687 1028,455.5C 1023.35,454.6 1019.19,455.767 1015.5,459C 1016.98,461.573 1016.48,463.74 1014,465.5C 1010.63,464.093 1007.13,463.593 1003.5,464C 1001.28,465.275 998.949,466.275 996.5,467C 995.793,469.543 994.46,471.709 992.5,473.5C 991.167,472.833 989.833,472.167 988.5,471.5C 979.174,475.769 969.508,479.603 959.5,483C 955.664,485.084 951.997,487.417 948.5,490C 949.451,490.718 949.617,491.551 949,492.5C 945.972,490.063 943.139,490.396 940.5,493.5C 941.879,494.863 941.713,495.863 940,496.5C 934.102,495.298 929.269,496.965 925.5,501.5C 924.126,504.457 921.96,505.124 919,503.5C 914.409,505.575 909.909,507.908 905.5,510.5C 905.002,511.603 904.669,512.603 904.5,513.5C 901.8,512.333 899.133,512.5 896.5,514C 891.324,517.588 885.657,520.088 879.5,521.5C 876.055,524.799 872.055,526.966 867.5,528C 866.058,528.377 865.058,529.21 864.5,530.5C 861.777,531.352 859.11,532.519 856.5,534C 858.044,534.29 859.377,534.956 860.5,536C 858.667,537.167 856.833,538.333 855,539.5C 852.421,537.653 849.588,537.153 846.5,538C 845.122,539.713 843.455,541.047 841.5,542C 841.957,542.414 842.291,542.914 842.5,543.5C 839.215,544.324 835.882,544.824 832.5,545C 825.062,549.053 817.395,552.553 809.5,555.5C 808.758,557.108 808.591,558.775 809,560.5C 805.523,560.874 802.69,562.374 800.5,565C 797.743,565.584 795.077,565.25 792.5,564C 798.503,558.994 805.17,554.994 812.5,552C 814.647,549.763 816.98,547.763 819.5,546C 826.626,542.603 833.626,538.937 840.5,535C 845.812,530.008 851.812,526.008 858.5,523C 866.778,517.722 874.778,512.055 882.5,506C 897.52,498.298 912.02,489.798 926,480.5C 927.333,480.5 928.667,480.5 930,480.5C 930.465,479.069 931.299,477.903 932.5,477C 945.46,471.858 957.46,465.192 968.5,457C 973.331,455.39 977.997,453.39 982.5,451C 996.222,442.806 1010.22,435.14 1024.5,428C 1035.53,423.976 1046.36,419.476 1057,414.5C 1070.01,407.497 1083.01,400.497 1096,393.5C 1159.02,364.015 1222.52,334.848 1286.5,306C 1321.66,290.42 1357.66,277.087 1394.5,266C 1410.36,261.698 1426.2,257.531 1442,253.5C 1442.67,254.5 1442.67,255.5 1442,256.5C 1425.3,264.193 1408.8,272.359 1392.5,281C 1390.38,282.733 1388.88,284.9 1388,287.5C 1383.66,286.094 1379.83,286.928 1376.5,290C 1371.52,291.21 1367.18,293.543 1363.5,297C 1355.3,300.704 1346.97,304.037 1338.5,307C 1337.17,308.333 1335.83,309.667 1334.5,311C 1326.65,312.613 1319.65,315.946 1313.5,321C 1304.18,323.823 1295.18,327.489 1286.5,332C 1285.07,333.916 1284.07,336.083 1283.5,338.5C 1283.7,337.471 1283.2,336.471 1282,335.5C 1273.37,338.734 1264.87,343.067 1256.5,348.5C 1247.64,350.099 1239.64,353.599 1232.5,359C 1222.82,361.832 1213.49,365.499 1204.5,370C 1204.82,371.937 1203.82,373.437 1201.5,374.5C 1200.23,373.572 1198.9,373.405 1197.5,374C 1189.22,377.872 1181.06,382.039 1173,386.5C 1172.67,386.167 1172.33,385.833 1172,385.5C 1170.29,386.878 1168.95,388.545 1168,390.5C 1166.23,389.724 1164.4,389.89 1162.5,391C 1163.5,391.333 1164.5,391.667 1165.5,392C 1165.07,392.92 1164.74,393.753 1164.5,394.5C 1160.51,392.281 1156.84,392.947 1153.5,396.5C 1151.78,395.339 1150.11,395.505 1148.5,397C 1149.99,398.156 1149.83,398.99 1148,399.5C 1147,399.167 1146,398.833 1145,398.5C 1142.71,400.06 1140.21,401.227 1137.5,402C 1135.38,404.035 1134.38,406.201 1134.5,408.5C 1132.6,407.266 1130.94,407.599 1129.5,409.5C 1128.45,408.617 1127.29,407.95 1126,407.5C 1119.79,409.57 1113.95,412.404 1108.5,416C 1100.89,419.485 1093.22,422.818 1085.5,426C 1082.54,429.038 1078.87,430.538 1074.5,430.5C 1074.77,432.099 1074.43,433.432 1073.5,434.5 Z M 1224.5,362.5 C 1226.34,362.639 1226.67,363.306 1225.5,364.5C 1224.7,364.043 1224.37,363.376 1224.5,362.5 Z M 2002.5,373.5 C 2003.14,371.668 2004.14,371.335 2005.5,372.5C 2004.68,373.386 2003.68,373.719 2002.5,373.5 Z M 1175.5,386.5 C 1177.05,386.821 1177.71,387.821 1177.5,389.5C 1174.75,389.598 1174.09,388.598 1175.5,386.5 Z M 1373.5,394.5 C 1374.64,392.912 1375.97,392.579 1377.5,393.5C 1376.31,394.429 1374.98,394.762 1373.5,394.5 Z M 1361.5,398.5 C 1361,400.085 1360,400.585 1358.5,400C 1359.24,398.961 1360.24,398.461 1361.5,398.5 Z M 313.5,408.5 C 316.125,409.466 316.125,410.466 313.5,411.5C 312.913,410.767 312.913,409.767 313.5,408.5 Z M 1293.5,421.5 C 1295,421.415 1296,422.081 1296.5,423.5C 1295.17,424.833 1293.83,424.833 1292.5,423.5C 1292.86,422.817 1293.2,422.15 1293.5,421.5 Z M 1289.5,423.5 C 1290.77,424.077 1290.77,424.743 1289.5,425.5C 1288.54,425.03 1288.54,424.363 1289.5,423.5 Z M 980.5,424.5 C 985.508,424.356 985.674,425.356 981,427.5C 979.317,426.824 979.15,425.824 980.5,424.5 Z M 300.5,425.5 C 301.289,425.783 301.956,426.283 302.5,427C 301.184,427.528 300.517,427.028 300.5,425.5 Z M 1260.5,434.5 C 1262.23,434.843 1262.73,435.843 1262,437.5C 1259.84,436.95 1259.34,435.95 1260.5,434.5 Z M 1221.5,450.5 C 1224.77,450.628 1224.94,451.961 1222,454.5C 1220.27,453.751 1218.43,453.251 1216.5,453C 1218.31,452.243 1219.98,451.41 1221.5,450.5 Z M 1002.5,471.5 C 1004.18,470.156 1005.85,470.323 1007.5,472C 1005.73,472.64 1004.07,472.473 1002.5,471.5 Z M 867.5,486.5 C 868.675,486.281 869.675,486.614 870.5,487.5C 868.948,488.798 867.948,488.465 867.5,486.5 Z M 864.5,530.5 C 866.346,530.222 867.68,530.889 868.5,532.5C 866.167,533.941 864.834,533.275 864.5,530.5 Z M 1014.5,539.5 C 1016.26,540.072 1017.92,540.906 1019.5,542C 1016.84,542.073 1014.18,541.74 1011.5,541C 1012.74,540.768 1013.74,540.268 1014.5,539.5 Z M 977.5,553.5 C 978.675,553.281 979.675,553.614 980.5,554.5C 978.926,555.631 977.259,555.798 975.5,555C 976.416,554.722 977.082,554.222 977.5,553.5 Z M 983.5,557.5 C 984.601,556.402 985.934,556.235 987.5,557C 986.318,558.768 984.985,558.935 983.5,557.5 Z M 789.5,564.5 C 790.922,564.75 791.922,565.583 792.5,567C 789.457,567.862 788.457,567.029 789.5,564.5 Z M 782.5,568.5 C 783.833,568.5 785.167,568.5 786.5,568.5C 786.657,569.873 786.49,571.207 786,572.5C 783.929,571.897 782.762,570.564 782.5,568.5 Z M 788.5,572.5 C 791.548,572.494 792.048,573.494 790,575.5C 788.961,574.756 788.461,573.756 788.5,572.5 Z M 775.5,573.5 C 779.703,575.664 779.37,576.997 774.5,577.5C 774.433,576.041 774.766,574.708 775.5,573.5 Z M 766.5,579.5 C 767.978,579.238 769.311,579.571 770.5,580.5C 768.926,581.631 767.259,581.798 765.5,581C 766.056,580.617 766.389,580.117 766.5,579.5 Z M 891.5,591.5 C 892.043,591.56 892.376,591.893 892.5,592.5C 891.277,593.614 889.944,593.781 888.5,593C 889.737,592.768 890.737,592.268 891.5,591.5 Z M 534.5,699.5 C 535.289,699.783 535.956,700.283 536.5,701C 535.184,701.528 534.517,701.028 534.5,699.5 Z M 507.5,713.5 C 509.337,713.639 509.67,714.306 508.5,715.5C 507.702,715.043 507.369,714.376 507.5,713.5 Z"/></g>
<g><path style="opacity:1" fill="#f1f3f2" d="M 1071.5,380.5 C 1070.45,380.649 1069.45,380.483 1068.5,380C 1069.75,379.26 1070.75,379.427 1071.5,380.5 Z"/></g>
</svg>
